<svg width="500" height="500" version="1.1" xmlns="http://www.w3.org/2000/svg" desc="Created with imagetracer.js version 1.2.6" ><path fill="rgb(0,0,0)" stroke="rgb(0,0,0)" stroke-width="1" opacity="0" d="M 0 0 L 500 0 L 500 500 L 0 500 L 0 0 Z M 254 151 L 232 156 L 214 168 L 203 182 Q 201 191 205 196 Q 208 202 217 203 Q 225 204 230 200 L 232 197 Q 238 188 250 185 L 263 185 L 273 191 Q 275 190 274 193 L 276 193 L 281 205 Q 282 213 278 218 L 278 220 Q 275 219 276 222 L 241 257 L 239 257 L 233 265 Q 230 264 231 267 L 229 267 L 229 269 L 224 273 Q 225 275 222 274 L 222 276 L 220 276 L 220 278 L 218 278 L 218 280 L 209 288 Q 210 290 207 289 L 207 291 L 205 291 L 205 293 L 196 301 Q 197 303 194 302 L 194 304 L 192 304 L 188 314 L 188 324 L 194 334 Q 199 338 208 340 L 309 340 L 320 338 L 330 334 L 340 327 Q 353 316 359 298 L 360 286 L 361 285 L 362 226 L 371 240 Q 370 242 373 241 L 401 281 Q 400 283 403 282 L 404 286 L 421 310 Q 425 317 435 319 Q 444 320 449 316 Q 454 312 456 305 L 456 168 L 453 162 Q 449 156 442 154 Q 432 153 428 157 L 422 163 L 419 172 L 419 244 L 407 229 Q 408 226 405 227 L 377 188 Q 378 185 375 186 L 360 164 L 350 156 Q 340 154 337 158 L 334 158 Q 335 161 333 160 L 328 165 L 325 175 L 325 283 L 324 288 L 319 297 Q 313 304 303 307 L 239 307 L 255 290 Q 257 291 256 288 L 258 288 L 281 265 Q 283 266 282 263 L 284 263 L 284 261 L 291 256 Q 290 253 293 254 L 293 252 L 295 252 L 295 250 L 297 250 Q 311 238 316 218 L 316 198 Q 314 186 308 179 Q 309 176 306 177 L 304 173 Q 295 162 283 156 L 274 153 L 254 151 Z M 71 153 L 64 156 L 58 162 L 55 172 L 55 243 L 54 244 L 54 324 L 58 334 L 69 340 Q 81 341 86 335 L 91 326 L 91 313 L 92 312 L 92 187 L 143 187 L 156 192 L 164 201 L 168 214 L 167 222 L 164 227 L 164 229 Q 161 228 162 231 Q 157 238 147 240 L 112 240 L 104 244 Q 101 243 102 246 L 100 246 L 97 252 Q 95 262 99 268 Q 102 273 110 275 L 150 275 L 155 274 L 173 267 L 184 258 Q 186 259 185 256 L 187 256 L 198 239 L 201 231 L 203 220 L 203 209 L 200 194 Q 196 182 189 175 Q 180 164 168 158 L 151 153 L 71 153 Z " /><path fill="rgb(214,214,214)" stroke="rgb(214,214,214)" stroke-width="1" opacity="0.1607843137254902" d="M 253.5 151 L 268 152.5 L 261.5 153 Q 259.8 150.3 253.5 152 Q 252.2 154.2 247.5 153 L 247.5 152 Q 252.2 153.2 253.5 151 Z " /><path fill="rgb(214,214,214)" stroke="rgb(214,214,214)" stroke-width="1" opacity="0.1607843137254902" d="M 70.5 153 L 150.5 153 L 167.5 158 Q 180.2 164.3 189 174.5 Q 200.2 185.8 202 206.5 L 201 206.5 L 201 200.5 L 193 181.5 L 178.5 166 Q 167.3 157.2 150.5 154 L 70.5 154 L 60 160 L 56.5 169 L 56 165.5 L 63.5 156 L 70.5 153 Z " /><path fill="rgb(214,214,214)" stroke="rgb(214,214,214)" stroke-width="1" opacity="0.1607843137254902" d="M 241.5 153 L 245 153.5 Q 219.8 158.8 207 176.5 Q 202.1 180.6 204 191.5 L 208.5 198 Q 212.5 203 222.5 202 L 227.5 200 L 238.5 189 L 248.5 185 L 248.5 186 Q 237.6 188.6 232 196.5 L 229.5 200 Q 225.4 203.9 216.5 203 Q 208.2 201.8 205 195.5 Q 201.3 191.2 203 181.5 L 213.5 168 Q 224.2 157.2 241.5 153 Z " /><path fill="rgb(214,214,214)" stroke="rgb(214,214,214)" stroke-width="1" opacity="0.1607843137254902" d="M 269.5 153 L 273.5 153 L 286.5 158 L 304 172.5 L 306 175.5 L 300 170.5 Q 300.8 168.3 298.5 169 L 287.5 160 Q 280.5 155 269.5 154 L 269.5 153 Z " /><path fill="rgb(214,214,214)" stroke="rgb(214,214,214)" stroke-width="1" opacity="0.1607843137254902" d="M 434.5 154 Q 448.2 153.3 453 161.5 L 456 167.5 L 456 304.5 Q 454.2 312.1 448.5 316 Q 444.1 320.1 434.5 319 Q 425.4 316.5 421 309.5 L 404 285.5 L 403 282 Q 400.3 283.1 401 280.5 L 373 241 Q 370.3 242.1 371 239.5 L 361.5 226 L 360.5 285 L 360 225 L 364 227.5 L 426.5 314 Q 430.5 319 440.5 318 Q 448.9 315.8 453 309.5 L 455 304.5 L 455 168.5 Q 453.2 161.3 447.5 158 L 444.5 156 L 435.5 155 Q 427.9 156.4 424 161.5 L 420 172.5 L 421 174.5 L 420 175.5 L 419.5 246 L 405 227.5 L 407 227 L 418.5 244 L 419 171.5 L 422 162.5 L 427.5 157 L 434.5 154 Z " /><path fill="rgb(214,214,214)" stroke="rgb(214,214,214)" stroke-width="1" opacity="0.1607843137254902" d="M 339.5 156 L 349.5 156 L 360 163.5 L 375 184.5 L 372 182.5 L 358 162 L 348.5 157 L 340.5 157 L 330 163.5 Q 326.5 166.5 326.5 173 L 326 168.5 L 332.5 160 Q 335.1 160.7 334 158 L 336.5 158 L 339.5 156 Z " /><path fill="rgb(214,214,214)" stroke="rgb(214,214,214)" stroke-width="1" opacity="0.1607843137254902" d="M 55.5 171 L 56 261.5 L 55 262.5 L 55 323.5 L 56 326.5 L 55 326.5 L 54 323.5 L 54 243.5 L 55 242.5 L 55.5 171 Z " /><path fill="rgb(214,214,214)" stroke="rgb(214,214,214)" stroke-width="1" opacity="0.1607843137254902" d="M 325.5 174 L 326 283.5 Q 323.9 293.9 317.5 300 L 307.5 306 L 307.5 305 Q 314.9 302.4 319 296.5 L 324 287.5 L 325 282.5 L 325.5 174 Z " /><path fill="rgb(214,214,214)" stroke="rgb(214,214,214)" stroke-width="1" opacity="0.1607843137254902" d="M 306.5 177 Q 308.8 176.3 308 178.5 Q 313.7 186.3 316 197.5 L 316 217.5 Q 310.9 238.4 296.5 250 L 295 250 L 295 252 L 293 252 L 293 254 Q 290.3 252.9 291 255.5 L 284 261 L 284 263 L 282 263 Q 283.1 265.7 280.5 265 L 257.5 288 L 256 288 Q 257.1 290.7 254.5 290 L 238.5 307 L 302.5 307 L 305.5 306 L 305.5 307 L 302.5 308 L 236.5 308 L 263.5 280 Q 265.8 280.8 265 278.5 L 271 274 L 272.5 271 L 275.5 269 L 304 240.5 L 311 229.5 L 315 216.5 L 315 198.5 L 312 187.5 L 306.5 177 Z " /><path fill="rgb(214,214,214)" stroke="rgb(214,214,214)" stroke-width="1" opacity="0.1607843137254902" d="M 250.5 184 L 262 184.5 L 250.5 185 L 250.5 184 Z " /><path fill="rgb(214,214,214)" stroke="rgb(214,214,214)" stroke-width="1" opacity="0.1607843137254902" d="M 263.5 185 Q 272.6 186.9 277 193.5 Q 282.5 199 282 210.5 L 278.5 219 L 278 217.5 Q 281.9 213.4 281 204.5 L 276 193 L 274 193 Q 275.1 190.3 272.5 191 Q 269.7 186.8 263.5 186 L 263.5 185 Z " /><path fill="rgb(214,214,214)" stroke="rgb(214,214,214)" stroke-width="1" opacity="0.1607843137254902" d="M 92.5 186 L 95 186.5 L 92 187 L 92 311.5 L 91 312.5 L 91 325.5 L 85.5 335 Q 80.9 341.4 68.5 340 L 58 333.5 L 56 328.5 L 57 328.5 L 62.5 336 Q 67 340 76.5 339 Q 83.9 336.4 88 330.5 L 90 325.5 L 90 257.5 L 91 256.5 L 90 254.5 L 91 253.5 L 91 187.5 L 92.5 186 Z " /><path fill="rgb(214,214,214)" stroke="rgb(214,214,214)" stroke-width="1" opacity="0.1607843137254902" d="M 96.5 186 L 101 186.5 L 96.5 187 L 96.5 186 Z " /><path fill="rgb(214,214,214)" stroke="rgb(214,214,214)" stroke-width="1" opacity="0.1607843137254902" d="M 103.5 186 L 114 186.5 L 103.5 187 L 103.5 186 Z " /><path fill="rgb(214,214,214)" stroke="rgb(214,214,214)" stroke-width="1" opacity="0.1607843137254902" d="M 116.5 186 L 142 186.5 L 116.5 187 L 116.5 186 Z " /><path fill="rgb(214,214,214)" stroke="rgb(214,214,214)" stroke-width="1" opacity="0.1607843137254902" d="M 375.5 186 Q 377.8 185.3 377 187.5 L 405 225.5 L 401 222.5 L 375.5 186 Z " /><path fill="rgb(214,214,214)" stroke="rgb(214,214,214)" stroke-width="1" opacity="0.1607843137254902" d="M 143.5 187 Q 156.5 189 163 197.5 Q 168 202.5 168 212.5 L 167 212.5 Q 166.1 197.4 155.5 192 Q 151 188.5 143.5 188 L 143.5 187 Z " /><path fill="rgb(214,214,214)" stroke="rgb(214,214,214)" stroke-width="1" opacity="0.1607843137254902" d="M 202.5 208 L 203 219.5 L 202 219.5 L 202.5 208 Z " /><path fill="rgb(214,214,214)" stroke="rgb(214,214,214)" stroke-width="1" opacity="0.1607843137254902" d="M 167.5 217 L 168 221.5 L 164.5 228 L 164 226.5 Q 167.9 223.9 167.5 217 Z " /><path fill="rgb(214,214,214)" stroke="rgb(214,214,214)" stroke-width="1" opacity="0.1607843137254902" d="M 276 220 L 278 220.5 L 273.5 226 Q 271.3 225.3 272 227.5 L 267 231 L 267 233 L 265 233 L 265 235 L 263 235 Q 264.1 237.7 261.5 237 L 258 242 L 256 242 L 256 244 L 254 244 Q 255.1 246.7 252.5 246 L 250 250 L 248.5 250 L 193 305.5 Q 187.5 310.5 189 322.5 Q 191.2 330.8 197.5 335 L 208.5 339 L 308.5 339 Q 309.8 336.7 314.5 338 L 314.5 339 Q 309.8 337.8 308.5 340 L 207.5 340 Q 198.9 338.4 194 334 L 188 323.5 L 188 313.5 L 192 304 L 194 304 L 194 302 Q 196.7 303.1 196 300.5 L 205 293 L 205 291 L 207 291 L 207 289 Q 209.7 290.1 209 287.5 L 218 280 L 218 278 L 220 278 L 220 276 L 222 276 L 222 274 Q 224.7 275.1 224 272.5 L 229 268.5 L 229 267 L 231 267 Q 229.9 264.3 232.5 265 L 239 257 L 240.5 257 L 276 221.5 L 276 220 Z " /><path fill="rgb(214,214,214)" stroke="rgb(214,214,214)" stroke-width="1" opacity="0.1607843137254902" d="M 201.5 221 L 202 226.5 L 198.5 236 L 198 234.5 Q 201.4 229.4 201.5 221 Z " /><path fill="rgb(214,214,214)" stroke="rgb(214,214,214)" stroke-width="1" opacity="0.1607843137254902" d="M 162 229 L 164 229.5 Q 158.4 238.4 146.5 241 L 111.5 241 Q 103.9 242.8 100 248.5 L 97.5 257 L 97 251.5 L 100 246 L 102 246 Q 100.9 243.3 103.5 244 L 111.5 240 L 146.5 240 Q 156.6 237.6 162 230.5 L 162 229 Z " /><path fill="rgb(214,214,214)" stroke="rgb(214,214,214)" stroke-width="1" opacity="0.1607843137254902" d="M 197.5 237 L 198 238.5 L 187 256 L 185 256 Q 186.1 258.7 183.5 258 Q 178.9 263.9 171.5 267 L 172.5 265 Q 181.9 260.4 188 252.5 L 197.5 237 Z " /><path fill="rgb(214,214,214)" stroke="rgb(214,214,214)" stroke-width="1" opacity="0.1607843137254902" d="M 97.5 260 Q 98.5 267.5 103.5 271 L 109.5 274 L 149.5 274 L 161.5 271 L 169.5 267 L 168.5 269 L 149.5 275 L 109.5 275 Q 102.3 273.2 99 267.5 Q 96 264.8 97.5 260 Z " /><path fill="rgb(214,214,214)" stroke="rgb(214,214,214)" stroke-width="1" opacity="0.1607843137254902" d="M 359.5 287 L 360 291.5 Q 355.5 315 339.5 327 Q 331 335.5 316.5 338 L 316.5 337 Q 331.7 333.7 341 324.5 L 345 319.5 Q 357.2 308.2 359.5 287 Z " /><path fill="rgb(252,252,252)" stroke="rgb(252,252,252)" stroke-width="1" opacity="0.9568627450980393" d="M 253.5 152 L 261 152.5 L 253.5 153 L 253.5 152 Z " /><path fill="rgb(252,252,252)" stroke="rgb(252,252,252)" stroke-width="1" opacity="0.9568627450980393" d="M 245.5 153 L 251 153.5 L 246.5 155 L 244.5 155 Q 232.2 156.2 224.5 162 L 209 175.5 L 205 182.5 L 205 190.5 L 209 197.5 L 206 195.5 Q 202.3 191.2 204 181.5 Q 209.3 171.3 218.5 165 Q 229.2 156.2 245.5 153 Z " /><path fill="rgb(252,252,252)" stroke="rgb(252,252,252)" stroke-width="1" opacity="0.9568627450980393" d="M 265.5 153 L 279.5 156 L 300 169 L 309 181.5 L 314 193.5 L 315 198.5 L 315 216.5 Q 312.2 231.2 304 240.5 L 275.5 269 L 272.5 271 L 271 274 L 265 278.5 Q 265.8 280.8 263.5 280 L 236.5 308 L 302.5 308 Q 313 305.5 319 298.5 L 322.5 293 L 322 294.5 Q 320.6 300.6 315.5 303 L 309.5 307 L 295.5 310 L 291.5 309 L 289.5 309 Q 286.3 311.3 279.5 310 L 277.5 309 L 275.5 309 L 264.5 310 Q 263 307.5 257.5 309 L 256.5 310 L 246.5 310 Q 244.8 307.3 238.5 309 Q 236.8 311.8 235 307.5 L 239.5 302 L 241 302 L 241 300 Q 243.7 301.1 243 298.5 L 276.5 266 L 278 266 L 284.5 258 L 301 242.5 L 306 236.5 L 313 220.5 L 314 215.5 L 314 200.5 L 313 197.5 L 313 193.5 L 308 181.5 L 293.5 165 L 279.5 157 Q 274.9 157.6 273.5 155 L 268.5 155 L 265.5 154 L 265.5 153 Z " /><path fill="rgb(252,252,252)" stroke="rgb(252,252,252)" stroke-width="1" opacity="0.9568627450980393" d="M 70.5 154 L 150.5 154 L 159 156.5 L 156.5 157 L 150.5 155 L 70.5 155 L 70.5 154 Z " /><path fill="rgb(252,252,252)" stroke="rgb(252,252,252)" stroke-width="1" opacity="0.9568627450980393" d="M 67.5 155 L 69 155.5 L 60 162.5 L 57 171.5 L 56.5 236 L 56 169.5 L 60 160 L 67.5 155 Z " /><path fill="rgb(252,252,252)" stroke="rgb(252,252,252)" stroke-width="1" opacity="0.9568627450980393" d="M 435.5 155 L 444.5 156 L 453 163.5 Q 455.6 166.4 455 172.5 L 454 172.5 Q 454.1 162.4 447.5 159 L 444.5 157 L 435.5 156 Q 427.4 157.4 424 163.5 L 422.5 166 L 423 164.5 L 426.5 159 L 435.5 155 Z " /><path fill="rgb(252,252,252)" stroke="rgb(252,252,252)" stroke-width="1" opacity="0.9568627450980393" d="M 160.5 157 Q 179.4 163.1 190 177.5 L 196 187.5 L 194 186.5 L 189 177 Q 186.3 178.1 187 175.5 L 178.5 167 L 160.5 158 L 160.5 157 Z " /><path fill="rgb(252,252,252)" stroke="rgb(252,252,252)" stroke-width="1" opacity="0.9568627450980393" d="M 340.5 157 L 348.5 157 L 358 162 Q 387 205.3 419.5 246 L 420 175.5 L 421.5 174 L 422 175.5 Q 419.3 177.2 421 183.5 L 422 185.5 L 421 190.5 L 421 192.5 L 422 204.5 L 421 205.5 L 421 219.5 L 421 221.5 L 421 239.5 L 422 241.5 L 421 243.5 L 421 245.5 Q 421.8 248.1 418.5 247 L 377 191.5 L 360 166 Q 357.3 167.1 358 164.5 Q 354 157 341.5 158 L 332 162 L 329 166.5 L 327 173.5 L 327 284.5 L 325.5 287 L 325 284.5 L 326 283.5 L 326 173.5 L 328 166.5 L 332.5 161 L 340.5 157 Z " /><path fill="rgb(252,252,252)" stroke="rgb(252,252,252)" stroke-width="1" opacity="0.9568627450980393" d="M 421.5 167 L 422 171.5 L 420 172.5 L 421.5 167 Z " /><path fill="rgb(252,252,252)" stroke="rgb(252,252,252)" stroke-width="1" opacity="0.9568627450980393" d="M 454.5 176 L 455 180.5 L 454 180.5 L 454.5 176 Z " /><path fill="rgb(252,252,252)" stroke="rgb(252,252,252)" stroke-width="1" opacity="0.9568627450980393" d="M 250.5 183 L 265.5 184 L 278 192 L 282 200.5 L 283 210.5 L 282 215.5 L 278 222.5 L 242.5 258 L 241 258 L 241 260 Q 238.3 258.9 239 261.5 L 233 266.5 L 229.5 271 L 226.5 273 L 222.5 278 L 220 279.5 Q 220.8 281.8 218.5 281 L 217 284 L 213 286.5 Q 213.8 288.8 211.5 288 L 204 297 L 195 304.5 L 190 313.5 L 190 322.5 L 195 332 L 197 332 Q 195.9 334.7 198.5 334 L 207 337.5 L 203.5 338 Q 196.1 335.4 192 329.5 Q 187.7 324.3 189 313.5 L 193 305.5 L 248.5 250 Q 250.8 250.8 250 248.5 L 254 246 L 254 244 L 256 244 L 256 242 Q 258.7 243.1 258 240.5 L 263 237 L 263 235 L 265 235 L 265 233 L 267 233 Q 265.9 230.3 268.5 231 L 272 226 L 276 223.5 Q 282.3 217.3 282 204.5 Q 279.6 194.4 272.5 189 L 261.5 184 L 250.5 184 L 247.5 185 L 247.5 184 L 250.5 183 Z " /><path fill="rgb(252,252,252)" stroke="rgb(252,252,252)" stroke-width="1" opacity="0.9568627450980393" d="M 244.5 185 L 246 185.5 Q 233.7 189.7 227.5 200 Q 223.9 202.9 216.5 202 L 210 198.5 L 211.5 199 Q 215.1 201.9 222.5 201 Q 230.6 198.1 235 191.5 Q 234.3 189.3 236.5 190 L 244.5 185 Z " /><path fill="rgb(252,252,252)" stroke="rgb(252,252,252)" stroke-width="1" opacity="0.9568627450980393" d="M 90 186 L 92 186.5 L 91 187.5 L 91 253.5 L 90 255.5 L 90 257.5 L 90 325.5 Q 88.2 332.7 82.5 336 Q 78.7 340.2 69.5 339 L 69.5 338 Q 81.5 338.5 86 331.5 L 89 324.5 L 89 245.5 L 90 244.5 L 89 242.5 L 89 240.5 L 90 235.5 L 89 234.5 L 89 216.5 Q 91.8 214.7 90 208.5 L 90 206.5 L 89 204.5 L 90 202.5 L 90 200.5 L 90 191.5 L 89 190.5 L 90 186 Z " /><path fill="rgb(252,252,252)" stroke="rgb(252,252,252)" stroke-width="1" opacity="0.9568627450980393" d="M 142.5 186 L 146.5 186 L 157 190 Q 155.9 192.7 158.5 192 Q 166 196.5 168 206.5 L 167 206.5 Q 165.1 197.4 158.5 193 Q 153.1 187.4 142.5 187 L 142.5 186 Z " /><path fill="rgb(252,252,252)" stroke="rgb(252,252,252)" stroke-width="1" opacity="0.9568627450980393" d="M 196.5 189 L 198 192.5 L 196 191.5 L 196.5 189 Z " /><path fill="rgb(252,252,252)" stroke="rgb(252,252,252)" stroke-width="1" opacity="0.9568627450980393" d="M 454.5 189 L 455 191.5 L 454 191.5 L 454.5 189 Z " /><path fill="rgb(252,252,252)" stroke="rgb(252,252,252)" stroke-width="1" opacity="0.9568627450980393" d="M 198.5 194 L 202 207.5 L 202 220.5 L 200 230.5 L 194 244.5 L 180.5 260 Q 168.6 270.6 149.5 274 L 109.5 274 L 101 268.5 Q 97.3 264.7 97 257.5 L 100 248.5 L 104.5 244 L 111.5 241 L 146.5 241 Q 158.4 238.4 164 229.5 L 168 221.5 L 168.5 208 Q 170.9 211.1 170 217.5 Q 167.6 229.6 159.5 236 L 146.5 242 L 113.5 242 L 108.5 243 L 101 248.5 Q 97.2 253.2 99 263.5 L 104.5 270 L 111.5 273 L 148.5 273 Q 171.7 268.7 185 254.5 L 197 236.5 L 201 220.5 L 201 207.5 L 198.5 194 Z " /><path fill="rgb(252,252,252)" stroke="rgb(252,252,252)" stroke-width="1" opacity="0.9568627450980393" d="M 454.5 200 L 455 205.5 L 454 205.5 L 454.5 200 Z " /><path fill="rgb(252,252,252)" stroke="rgb(252,252,252)" stroke-width="1" opacity="0.9568627450980393" d="M 454.5 219 L 455 304.5 Q 453.2 311.7 447.5 315 L 447 313 L 451 310.5 L 454 303.5 L 454.5 219 Z " /><path fill="rgb(252,252,252)" stroke="rgb(252,252,252)" stroke-width="1" opacity="0.9568627450980393" d="M 360.5 224 L 364 225.5 L 422 306.5 L 419 304.5 L 361.5 225 L 360 225.5 L 360 286.5 L 358.5 292 L 358 284.5 L 359 283.5 L 359 225.5 L 360.5 224 Z " /><path fill="rgb(252,252,252)" stroke="rgb(252,252,252)" stroke-width="1" opacity="0.9568627450980393" d="M 55.5 262 L 56 323.5 L 55 323.5 L 55.5 262 Z " /><path fill="rgb(252,252,252)" stroke="rgb(252,252,252)" stroke-width="1" opacity="0.9568627450980393" d="M 324.5 288 L 325 290.5 L 323 291.5 L 324.5 288 Z " /><path fill="rgb(252,252,252)" stroke="rgb(252,252,252)" stroke-width="1" opacity="0.9568627450980393" d="M 357.5 293 L 358 297.5 Q 353 311.4 345 321 L 343 321 L 343 323 Q 340.3 321.9 341 324.5 L 324.5 335 L 308.5 339 L 208 339 L 208.5 337 L 210.5 337 L 216.5 338 L 218.5 337 L 221.5 338 L 223.5 338 L 228.5 337 L 231.5 338 L 232.5 337 L 244.5 337 L 246.5 337 L 252.5 338 L 255.5 337 L 257.5 338 Q 258.8 335.7 263.5 337 Q 265.2 339.8 271.5 338 Q 273 335.5 278.5 337 L 280.5 337 L 290.5 338 L 293.5 337 L 297.5 338 Q 298.8 335.7 303.5 337 L 305.5 338 L 306.5 337 L 318.5 336 L 330.5 331 L 347 316.5 Q 354.4 306.9 357.5 293 Z " /><path fill="rgb(252,252,252)" stroke="rgb(252,252,252)" stroke-width="1" opacity="0.9568627450980393" d="M 422.5 308 L 426 313 L 433 316.5 L 431.5 317 L 424 311.5 L 422.5 308 Z " /><path fill="rgb(252,252,252)" stroke="rgb(252,252,252)" stroke-width="1" opacity="0.9568627450980393" d="M 444.5 315 L 446 315.5 L 442.5 317 L 442.5 316 L 444.5 315 Z " /><path fill="rgb(252,252,252)" stroke="rgb(252,252,252)" stroke-width="1" opacity="0.9568627450980393" d="M 434.5 317 L 441 317.5 L 434.5 318 L 434.5 317 Z " /><path fill="rgb(252,252,252)" stroke="rgb(252,252,252)" stroke-width="1" opacity="0.9568627450980393" d="M 56.5 325 Q 57.7 331.8 62.5 335 L 68 337.5 L 66.5 338 L 58 331.5 Q 55 329 56.5 325 Z " /><path fill="rgb(254,254,254)" stroke="rgb(254,254,254)" stroke-width="1" opacity="0.996078431372549" d="M 251.5 153 L 262.5 153 L 263.5 154 L 265.5 154 Q 290 157.5 302 173.5 L 311 187.5 L 314 198.5 L 314 200.5 L 314 215.5 L 311 226.5 L 306 236.5 L 285.5 258 L 278 264.5 Q 278.8 266.8 276.5 266 L 243 298.5 L 243 300 L 241 300 Q 242.1 302.7 239.5 302 L 235 307.5 Q 236.8 311.8 238.5 309 L 256.5 310 Q 258 307.5 263.5 309 Q 265.2 311.8 271.5 310 L 275.5 309 L 277.5 309 Q 280.7 311.3 287.5 310 L 289.5 309 L 291.5 309 L 296.5 310 L 311.5 306 L 321 297.5 L 327 284.5 L 327 173.5 L 329 166.5 L 332 162 Q 336.8 157.6 347.5 158 Q 354.9 159.1 358 164.5 L 360 167.5 L 418.5 247 Q 421.8 248.1 421 245.5 L 421 243.5 L 422 240.5 L 421 239.5 L 421 221.5 L 421 219.5 L 422 200.5 Q 419.3 198.8 421 192.5 L 421 190.5 L 422 184.5 Q 419.3 182.8 421 176.5 L 422 174.5 L 421 172.5 Q 423.3 171.3 422 166.5 L 429.5 158 L 435.5 156 L 440.5 156 Q 447.9 157.1 451 162.5 Q 454.8 167.2 455 175.5 L 454 180.5 Q 456.8 182.2 455 188.5 L 454 191.5 Q 456.8 193.3 455 199.5 Q 452.7 200.8 454 205.5 L 455 206.5 L 455 218.5 L 454 219.5 L 454 303.5 Q 453.1 310.1 448.5 313 Q 445.9 312.3 447 315 L 444.5 315 Q 441.6 318.6 433.5 317 L 426 313 L 362.5 224 L 359 225.5 L 359 283.5 L 358 284.5 L 358 292.5 L 351 310.5 L 337.5 326 L 324.5 334 L 314.5 337 Q 307.7 335.7 304.5 338 Q 303.3 335.7 298.5 337 L 294.5 338 L 291.5 337 Q 289.8 339.8 283.5 338 L 280.5 337 L 278.5 337 L 264.5 338 Q 263.2 335.7 258.5 337 L 256.5 338 L 253.5 337 L 248.5 338 L 246.5 337 L 244.5 337 Q 235 335.5 229.5 338 L 226.5 337 L 223.5 338 L 221.5 338 L 217.5 337 L 214.5 338 L 210.5 337 L 206.5 337 L 197 334 L 197 332 Q 194.3 333.1 195 330.5 L 190 322.5 L 190 313.5 Q 194.2 303.2 202.5 297 Q 204.8 297.8 204 295.5 L 213 288 L 215.5 284 Q 217.8 284.8 217 282.5 L 220 281 L 221.5 278 L 224 276.5 L 226.5 273 L 229.5 271 L 234.5 265 L 239 261.5 L 239 260 L 241 260 Q 239.9 257.3 242.5 258 L 278 222.5 L 282 215.5 L 283 204.5 L 278 192 L 265.5 184 L 250.5 183 L 241.5 186 L 235 190 L 228.5 198 Q 225 202 216.5 201 L 209 198 L 205 190.5 L 205 182.5 Q 209 173.5 216.5 168 L 234.5 157 L 245.5 154 L 247.5 154 L 251.5 153 Z " /><path fill="rgb(254,254,254)" stroke="rgb(254,254,254)" stroke-width="1" opacity="0.996078431372549" d="M 69.5 155 L 150.5 155 Q 174.2 159.8 187 175.5 L 189 178.5 L 198 193.5 L 201 207.5 L 201 220.5 L 196 238.5 Q 190.8 249.3 182.5 257 Q 171.1 267.6 153.5 272 L 148.5 273 L 111.5 273 Q 104.1 271.9 101 266.5 L 99 263.5 L 99 252.5 L 103.5 246 L 108.5 243 L 113.5 242 L 146.5 242 Q 157.8 239.3 164 231.5 Q 170.2 224.7 170 211.5 L 165 198.5 L 158.5 192 Q 155.9 192.7 157 190 L 154.5 190 L 152.5 188 L 139.5 185 L 135.5 186 L 133.5 185 L 132.5 186 L 94.5 186 L 92.5 186 Q 88.3 184.7 90 189.5 L 90 191.5 L 90 200.5 L 89 201.5 L 90 203.5 L 90 205.5 L 89 207.5 Q 91.8 209.2 90 215.5 L 89 216.5 L 89 234.5 L 89 236.5 L 90 241.5 L 89 243.5 L 89 245.5 L 89 324.5 L 83.5 334 Q 78.7 338.7 68.5 338 L 59 331.5 L 56 324.5 L 56 236.5 L 57 235.5 L 57 171.5 L 60 162.5 L 65.5 157 L 69.5 155 Z " /></svg>